<svg viewBox="0 0 22 20" fill="rgb(3, 169, 245)" xmlns="http://www.w3.org/2000/svg">
    <path d="M3 5.5a1 1 0 00-1 1v10a1 1 0 001 1h13a1 1 0 001-1v-10a1 1 0 00-1-1H3zm0-2h13a3 3 0 013 3v10a3 3 0 01-3 3H3a3 3 0 01-3-3v-10a3 3 0 013-3zm1.5 6a1.5 1.5 0 100-3 1.5 1.5 0 000 3zm.488 6.155c.203-1.296.656-1.976 1.337-2.21.276-.094.609.009 1.55.495 1.57.811 2.416 1.025 3.567.457 1.115-.55 1.568-1.39 1.837-2.754l.064-.339c.13-.703.216-.954.35-1.083.341-.328.583-.359.989-.127a1 1 0 10.991-1.737 2.665 2.665 0 00-3.366.422c-.549.528-.723 1.039-.93 2.16l-.06.317c-.16.812-.336 1.138-.76 1.347-.368.182-.743.087-1.765-.44-1.446-.747-2.113-.953-3.117-.609-1.474.506-2.355 1.827-2.663 3.79a1 1 0 101.976.311zM6 2.5a1 1 0 110-2h12a4 4 0 014 4v9a1 1 0 01-2 0v-9a2 2 0 00-2-2H6z"></path>
</svg>
