<svg viewBox="0 0 18 18" fill="rgb(191, 191, 191)" style="background:white;" version="1.1" xmlns="http://www.w3.org/2000/svg">
    <path d="M8.718 15.371l5.077-.842c.821-.174 1.084-.564 1.176-1.422l.526-5.272c.046-.842-.573-1.291-1.573-1.083l-2.82.599.002-1.236c.001-1.127-.033-2.766-.088-2.96-.295-1.01-.926-1.385-1.698-1.02-.245.13-.257.167-.246 1.023a38.303 38.303 0 01-.008 1.524c-.002.14-.002.264-.002.384.006 1.327-.992 2.361-2.935 3.23l2.59 7.075zm-2.008.333L4.256 8.996a30.684 30.684 0 01-1.598.467 1 1 0 00-.541 1.306l1.903 4.597a1 1 0 001.088.604l1.602-.266zm6.803-10.91c2.215-.46 4.103.91 3.978 3.194l-.531 5.325c-.175 1.64-.95 2.79-2.794 3.181l-8.73 1.45a3 3 0 01-3.264-1.813L.27 11.535a3 3 0 012.008-4.05c3.258-.857 4.79-1.794 4.787-2.41a28.244 28.244 0 01.007-.782c.007-.489.008-.751.003-1.109C7.054 1.66 7.294.95 8.42.35c2.038-.965 3.906.147 4.52 2.251.093.327.128.968.15 2.047.003.078.004.157.005.236l.418-.088z"></path>
</svg>